<?xml version="1.0" encoding="UTF-8"?>
<svg width="24px" height="24px" viewBox="0 0 24 24" version="1.1" xmlns="http://www.w3.org/2000/svg">
    <g stroke="none" stroke-width="1" fill="none" fill-rule="evenodd">
        <path d="M8.7,15.9L4.8,12l3.9-3.9c0.4-0.4,0.4-1,0-1.4s-1-0.4-1.4,0l-4.6,4.6c-0.4,0.4-0.4,1,0,1.4l4.6,4.6c0.2,0.2,0.5,0.3,0.7,0.3
            s0.5-0.1,0.7-0.3C9.1,16.9,9.1,16.3,8.7,15.9z" fill="#2B4F60"/>
        <path d="M15.3,15.9c-0.4,0.4-0.4,1,0,1.4c0.2,0.2,0.5,0.3,0.7,0.3s0.5-0.1,0.7-0.3l4.6-4.6c0.4-0.4,0.4-1,0-1.4l-4.6-4.6
            c-0.4-0.4-1-0.4-1.4,0s-0.4,1,0,1.4l3.9,3.9L15.3,15.9z" fill="#2B4F60"/>
    </g>
</svg> 